<svg width="24" height="24" viewBox="0 0 24 24" fill="none" xmlns="http://www.w3.org/2000/svg">
<path d="M20.6227 16.3654C20.2996 17.0991 19.917 17.7744 19.4738 18.3953C18.8697 19.2418 18.3751 19.8277 17.9938 20.153C17.4029 20.6871 16.7698 20.9606 16.0917 20.9762C15.605 20.9762 15.018 20.8401 14.3348 20.564C13.6492 20.2891 13.0192 20.153 12.4432 20.153C11.8391 20.153 11.1911 20.2891 10.4981 20.564C9.80402 20.8401 9.24486 20.9839 8.81735 20.9982C8.16718 21.0254 7.51913 20.7441 6.87226 20.153C6.45939 19.7992 5.94297 19.1925 5.32433 18.3331C4.66057 17.4153 4.11488 16.3511 3.68737 15.1378C3.22952 13.8273 3 12.5583 3 11.3297C3 9.92233 3.30945 8.70852 3.92928 7.69134C4.41642 6.87431 5.06447 6.22981 5.87557 5.75668C6.68666 5.28355 7.56305 5.04244 8.50684 5.02702C9.02326 5.02702 9.70047 5.18399 10.542 5.4925C11.3812 5.80205 11.9201 5.95903 12.1563 5.95903C12.3329 5.95903 12.9315 5.77548 13.9463 5.40954C14.9059 5.07018 15.7158 4.92967 16.3793 4.98502C18.1772 5.12761 19.5279 5.82409 20.4262 7.07886C18.8183 8.03628 18.0229 9.37725 18.0387 11.0975C18.0532 12.4375 18.5479 13.5525 19.52 14.4378C19.9606 14.8488 20.4526 15.1663 21 15.3919C20.8813 15.7302 20.756 16.0543 20.6227 16.3654ZM16.4993 0.42012C16.4993 1.47036 16.1089 2.45097 15.3306 3.3586C14.3915 4.43761 13.2555 5.06111 12.0236 4.96272C12.0079 4.83673 11.9988 4.70412 11.9988 4.56477C11.9988 3.55654 12.4454 2.47754 13.2386 1.59531C13.6346 1.14862 14.1382 0.777199 14.7489 0.480913C15.3583 0.189048 15.9348 0.0276404 16.4769 0C16.4927 0.140401 16.4993 0.280824 16.4993 0.42012Z" fill="white"/>
</svg>
