<svg width="24" height="24" viewBox="0 0 24 24" fill="none" xmlns="http://www.w3.org/2000/svg">
<g clip-path="url(#clip0_23_9519)">
<path d="M22 12.6354C22 11.7799 21.9319 11.1557 21.7846 10.5083H12.2041V14.3694H17.8276C17.7143 15.3289 17.1021 16.7739 15.7415 17.7449L15.7224 17.8742L18.7516 20.2669L18.9615 20.2882C20.8889 18.4732 22 15.8028 22 12.6354Z" fill="#4285F4"/>
<path d="M12.2041 22.8083C14.9592 22.8083 17.2721 21.8834 18.9615 20.2882L15.7415 17.7449C14.8798 18.3576 13.7233 18.7853 12.2041 18.7853C9.5057 18.7853 7.21547 16.9704 6.39907 14.4619L6.2794 14.4722L3.12962 16.9577L3.08842 17.0744C4.76641 20.4731 8.21313 22.8083 12.2041 22.8083Z" fill="#34A853"/>
<path d="M6.39905 14.4619C6.18363 13.8145 6.05897 13.1209 6.05897 12.4042C6.05897 11.6874 6.18363 10.9938 6.38772 10.3465L6.38201 10.2086L3.19276 7.68323L3.08841 7.73383C2.39683 9.14419 2 10.728 2 12.4042C2 14.0804 2.39683 15.6641 3.08841 17.0745L6.39905 14.4619Z" fill="#FBBC05"/>
<path d="M12.2041 6.02292C14.1202 6.02292 15.4127 6.86681 16.1496 7.57202L19.0295 4.70508C17.2608 3.02886 14.9592 2 12.2041 2C8.21313 2 4.76641 4.33514 3.08842 7.73381L6.38773 10.3464C7.21547 7.83789 9.5057 6.02292 12.2041 6.02292Z" fill="#EA4335"/>
</g>
<defs>
<clipPath id="clip0_23_9519">
<rect width="24" height="24" fill="white"/>
</clipPath>
</defs>
</svg>
